<svg width="1621" height="2808" viewBox="0 0 1621 2808" fill="none" xmlns="http://www.w3.org/2000/svg">
<g clip-path="url(#clip0_256_143)">
<path d="M-53 2454.49C-53 2445.39 -46.8968 2437.51 -37.9652 2435.81C-7.21546 2429.97 67.6398 2419.6 157.974 2434.46C282.234 2454.91 401.468 2521.27 525.371 2543.36C686.394 2572.07 805.855 2480.18 970.05 2476.6C1180.56 2472.01 1233.98 2560.16 1442.71 2584.84C1599.19 2603.35 1702.64 2597.27 1851.24 2549.99C1927.53 2525.71 2015.49 2480.49 2060.7 2455.95C2074.25 2448.59 2091 2458.4 2091 2473.82V2833C2091 2844.05 2082.05 2853 2071 2853H-33C-44.0457 2853 -53 2844.05 -53 2833V2454.49Z" fill="url(#paint0_linear_256_143)" fill-opacity="0.5"/>
<path d="M-53 2447.48C-53 2442.19 -50.1717 2437.26 -45.1084 2434.46C-19.3346 2420.24 58.842 2418.15 157.974 2434.46C282.234 2454.91 401.468 2521.27 525.371 2543.36C686.394 2572.07 805.855 2480.18 970.05 2476.6C1180.56 2472.01 1233.98 2560.16 1442.71 2584.84C1599.19 2603.35 1702.64 2597.27 1851.24 2549.99C1927.19 2525.82 2012.53 2498.56 2059.17 2463.71C2071.52 2454.48 2091 2462.28 2091 2476.6V2836.57C2091 2845.65 2082.71 2853 2072.48 2853H-34.4773C-44.7071 2853 -53 2845.65 -53 2836.57V2447.48Z" fill="url(#paint1_linear_256_143)" fill-opacity="0.5"/>
<path d="M2329 2555.82C2329 2548.24 2324.72 2541.34 2317.74 2538.38C2286.79 2525.23 2195.68 2491.81 2090.86 2502.54C1955.47 2516.39 1776 2631.81 1641 2646.78C1465.56 2666.24 1288.97 2589.53 1110.07 2587.1C880.704 2583.99 823.353 2643 595.933 2659.72C425.432 2672.27 422.905 2581.07 261 2549.03C167.496 2530.52 53.6491 2537.87 10.6093 2541.7C0.511348 2542.6 -7.00012 2551.09 -7.00012 2561.23V2804C-7.00012 2815.05 1.95418 2824 12.9999 2824H2309C2320.05 2824 2329 2815.05 2329 2804V2555.82Z" fill="url(#paint2_linear_256_143)" fill-opacity="0.5"/>
<path d="M2329 2538.03C2329 2534.44 2325.92 2531.1 2320.4 2529.21C2292.32 2519.57 2198.87 2491.48 2090.86 2502.54C1955.47 2516.39 1776 2631.81 1641 2646.78C1465.56 2666.24 1288.97 2589.53 1110.07 2587.1C880.704 2583.99 823.353 2643 595.933 2659.72C425.432 2672.27 422.905 2581.07 261 2549.03C180.385 2533.07 102.196 2534.46 35.6023 2539.7C32.1452 2539.97 28.6967 2539.14 25.2529 2538.73C11.6297 2537.12 -7.00012 2549.19 -7.00012 2557.77V2801.73C-7.00012 2807.88 2.0355 2812.87 13.1814 2812.87H2308.82C2319.96 2812.87 2329 2807.88 2329 2801.73V2538.03Z" fill="url(#paint3_linear_256_143)" fill-opacity="0.5"/>
<path d="M-53 2683.15C-53 2674.16 -47.0451 2666.33 -38.2715 2664.37C-7.16899 2657.42 69.5938 2643.3 157.208 2649.56C276.717 2658.11 384.086 2702.31 503.25 2711.55C658.115 2723.55 733.685 2669.43 891.601 2667.94C1094.06 2666.02 1184.76 2718.57 1385.5 2728.89C1536 2736.62 1631.38 2748.65 1774.3 2728.89C1849.45 2718.49 1938.51 2691.3 1982.16 2677.01C1995.3 2672.71 2009 2682.47 2009 2696.29V2821C2009 2832.05 2000.05 2841 1989 2841H-33C-44.0456 2841 -53 2832.05 -53 2821V2683.15Z" fill="url(#paint4_linear_256_143)" fill-opacity="0.5"/>
<path d="M-53 2671.46C-53 2669.25 -50.2799 2667.19 -45.4102 2666.02C-20.6221 2660.07 61.8681 2642.75 157.208 2649.56C276.717 2658.11 384.086 2702.31 503.25 2711.55C658.115 2723.55 733.685 2669.43 891.601 2667.94C1094.06 2666.02 1184.76 2718.57 1385.5 2728.89C1536 2736.62 1631.38 2748.65 1774.3 2728.89C1847.34 2718.78 1933.53 2692.81 1978.39 2678.24C1990.27 2674.39 2009 2677.65 2009 2683.64V2834.13C2009 2837.93 2001.02 2841 1991.19 2841H-35.1857C-45.0242 2841 -53 2837.93 -53 2834.13V2671.46Z" fill="url(#paint5_linear_256_143)" fill-opacity="0.5"/>
</g>
<defs>
<linearGradient id="paint0_linear_256_143" x1="-53" y1="2622.19" x2="2091" y2="2622.19" gradientUnits="userSpaceOnUse">
<stop stop-color="#F2FAFF" stop-opacity="0.44"/>
<stop offset="1" stop-color="#D6FEFF" stop-opacity="0.53"/>
</linearGradient>
<linearGradient id="paint1_linear_256_143" x1="-53" y1="2622.19" x2="2091" y2="2622.19" gradientUnits="userSpaceOnUse">
<stop stop-color="#F2FAFF" stop-opacity="0.44"/>
<stop offset="1" stop-color="#D6FEFF" stop-opacity="0.53"/>
</linearGradient>
<linearGradient id="paint2_linear_256_143" x1="2329" y1="2667.57" x2="-7" y2="2667.57" gradientUnits="userSpaceOnUse">
<stop stop-color="#D6FEFF" stop-opacity="0.5"/>
<stop offset="1" stop-color="#EFF3FC" stop-opacity="0.5"/>
</linearGradient>
<linearGradient id="paint3_linear_256_143" x1="2329" y1="2667.57" x2="-7" y2="2667.57" gradientUnits="userSpaceOnUse">
<stop stop-color="#D6FEFF" stop-opacity="0.5"/>
<stop offset="1" stop-color="#EFF3FC" stop-opacity="0.5"/>
</linearGradient>
<linearGradient id="paint4_linear_256_143" x1="-53" y1="2744.5" x2="2009" y2="2744.5" gradientUnits="userSpaceOnUse">
<stop stop-color="#F0F4FC" stop-opacity="0.5"/>
<stop offset="1" stop-color="#D6FEFF" stop-opacity="0.5"/>
</linearGradient>
<linearGradient id="paint5_linear_256_143" x1="-53" y1="2744.5" x2="2009" y2="2744.5" gradientUnits="userSpaceOnUse">
<stop stop-color="#F0F4FC" stop-opacity="0.5"/>
<stop offset="1" stop-color="#D6FEFF" stop-opacity="0.5"/>
</linearGradient>
<clipPath id="clip0_256_143">
<rect width="1621" height="2808" fill="white"/>
</clipPath>
</defs>
</svg>
